<svg width="177" height="130" fill="none" xmlns="http://www.w3.org/2000/svg"><path d="M68.298 129.672c-1.888-.027-3.53-.74-4.816-2-4.734-4.686-9.386-9.427-14.065-14.168-4.898-4.96-9.823-9.892-14.749-14.825-4.022-4.028-8.017-8.084-12.04-12.14-4.159-4.192-8.373-8.385-12.505-12.605-2.79-2.822-5.636-5.59-8.263-8.55-2.654-3.014-2.436-6.659.383-9.59 2.216-2.302 4.487-4.55 6.759-6.797 2.408-2.411 4.925-4.768 7.223-7.261 2.846-3.097 7.635-3.207 10.782.027 7.114 7.344 14.338 14.578 21.507 21.84A5817.085 5817.085 0 0066.82 82.018c1.56 1.562 1.642 1.48 3.202-.082 4.131-4.193 8.29-8.33 12.45-12.496 4.16-4.165 8.318-8.303 12.478-12.468 4.24-4.248 8.51-8.495 12.751-12.743a5193.8 5193.8 0 0112.231-12.304c4.05-4.055 8.127-8.111 12.177-12.167 4.214-4.22 8.428-8.467 12.642-12.687 1.915-1.891 3.694-3.946 5.828-5.563 2.873-2.22 6.403-1.946 8.975.603 5.008 4.905 9.933 9.892 14.831 14.934 2.463 2.521 2.517 6.468.137 9.07-2.873 3.125-5.911 6.084-8.893 9.099-5.61 5.617-11.219 11.208-16.829 16.825-4.925 4.933-9.85 9.893-14.776 14.825a9777.534 9777.534 0 01-16.828 16.826c-5.692 5.7-11.411 11.4-17.102 17.127-5.582 5.59-11.11 11.18-16.692 16.743-3.584 3.562-7.142 7.179-10.863 10.577-1.067.959-2.736 1.261-4.132 1.891-.027-.137-.082-.246-.11-.356z" fill="#fff"/></svg>