<svg width="151" height="150" fill="none" xmlns="http://www.w3.org/2000/svg"><path d="M98.32 16.85c-22.467-22.467-58.925-22.467-81.449 0-22.523 22.466-22.466 58.925 0 81.391 19.907 19.908 50.792 22.126 73.258 6.712l42.317 42.317a9.27 9.27 0 0013.139 0l1.706-1.706a9.27 9.27 0 000-13.139l-42.317-42.317c15.414-22.41 13.253-53.294-6.654-73.258zM84.442 84.42c-14.845 14.845-38.904 14.845-53.693 0-14.845-14.788-14.845-38.847 0-53.692 14.845-14.845 38.904-14.845 53.693 0 14.845 14.845 14.845 38.904 0 53.692z" fill="#fff"/></svg>