<svg viewBox="0 0 18 30" fill="none" xmlns="http://www.w3.org/2000/svg"><path d="M5.657 20.345c0-2.07.315-3.448.629-4.828.314-1.38 1.257-1.724 2.2-2.758l2.2-2.414c.629-.69.629-1.38.629-2.414 0-2.069-.943-3.103-2.515-3.103-.628 0-1.257.344-1.885 1.034-.629.69-.629 1.724-.629 2.759H0c0-2.759.943-4.828 2.2-6.207C3.457 1.034 5.972 0 8.8 0c2.829 0 4.715.69 6.286 2.069 1.572 1.38 2.2 3.448 2.2 5.862 0 1.035-.314 2.069-.628 3.103-.315 1.035-.943 1.725-1.886 2.76l-2.2 2.068c-.629.69-.943 1.38-1.257 2.069-.315.69-.315 1.724-.315 2.414H5.657zm-.628 6.207c0-1.035.314-1.724.943-2.414.628-.69 1.571-1.035 2.514-1.035.943 0 1.886.345 2.514 1.035.629.69.943 1.38.943 2.414 0 1.034-.314 2.069-.943 2.413C10.372 29.31 9.43 30 8.486 30c-.943 0-1.886-.345-2.514-1.035-.629-.69-.943-1.379-.943-2.413z" fill="#E6E7E8"/></svg>