<svg viewBox="0 0 32 32" xmlns="http://www.w3.org/2000/svg"><path d="M16.346 17.865c4.765 0 8.654-3.105 8.654-6.932C25 7.106 21.112 4 16.346 4h-6.147c-.581 0-1.051.464-1.051 1.035s.47 1.035 1.051 1.035h2.963v9.725h-4.11C8.47 15.795 8 16.259 8 16.83s.471 1.035 1.051 1.035h4.11V20.3h-4.11c-.58 0-1.051.464-1.051 1.035 0 .572.471 1.035 1.051 1.035h4.11v4.664c.045.542.502.965 1.06.965.557 0 1.015-.423 1.059-.961V22.37h6.214c.58 0 1.051-.463 1.051-1.035 0-.57-.471-1.035-1.051-1.035H15.28v-2.436h1.066zM15.284 6.07h1.062c3.597 0 6.529 2.186 6.529 4.863 0 2.677-2.932 4.863-6.53 4.863h-1.061V6.07z" fill="#1F2229" fill-rule="nonzero"/></svg>