<svg viewBox="0 0 101 89" fill="none" xmlns="http://www.w3.org/2000/svg"><path d="M74.016 7.99c5.78 4.69 4.943 21.147 8.131 21.544 3.189.437 14.23-3.935 18.853-8.268-6.537 9.42-19.291 16.854-23.795 14.19-4.544-2.662 0-20.709-3.189-27.466zM72.502 20.153C67.48 11.885 60.265 5.605 57.914 4.85c-2.352-.755-13.99 5.764-18.255 12.283C44.64 5.485 54.605-1.948 60.026.477c5.46 2.425 11.04 5.525 11.798 6.161.279 4.174 1.515 5.923.678 13.515zM44.72 25.28c1.475 6.202 20.368 14.51 28.579 21.386 8.21 6.877-9.247 21.624-30.173 34.463 15.346-14.27 31.767-24.684 12.157-32.475-19.57-7.791-26.824-14.787-10.562-23.373z" fill="#AAFAE2"/><path d="M33.76 35.457c-1.475 5.923-7.533 16.496-15.226 21.505C10.84 61.97 6.895 70.039 0 86.257c12.954-19.914 25.15-20.312 30.053-26.791 4.902-6.48 13.233-15.264 13.233-15.264-3.986-1.55-7.693-4.293-9.526-8.745zM86.35 16.404c3.185-.426 5.42-3.347 4.993-6.524-.428-3.176-3.357-5.406-6.542-4.98-3.186.427-5.421 3.348-4.993 6.525.427 3.177 3.356 5.406 6.542 4.98zM65.088 81.766c0 4.014-3.268 7.234-7.254 7.234-3.986 0-7.254-3.26-7.254-7.234 0-3.976 3.268-7.235 7.254-7.235 3.986 0 7.254 3.22 7.254 7.234z" fill="#AAFAE2"/></svg>