<svg viewBox="0 0 59 118" fill="none" xmlns="http://www.w3.org/2000/svg"><path d="M0 113.729l3.905-14.15c1.673 1.469 3.533 2.803 6.136 2.536 3.905-.534 6.508-3.737 9.576-20.823l9.39-52.993C32.82 6.674 39.141 0 48.252 0c4.649 0 8.089 2.803 10.6 5.873L54.11 18.688c-1.21-1.468-2.883-3.07-5.393-3.07-4.09 0-6.322 4.271-7.716 12.28l-11.064 59.4c-3.44 18.688-8.74 30.969-20.547 30.702-3.998 0-7.624-2.403-9.39-4.271zm18.037-73.817l6.694-.935h24.916l-1.767 14.95H16.363l1.674-14.015z" fill="#AAFAE2"/></svg>