<svg width="151" height="150" viewBox="0 0 151 150" fill="none" xmlns="http://www.w3.org/2000/svg">
<path d="M98.3197 16.8499C75.8532 -5.61665 39.3947 -5.61665 16.8713 16.8499C-5.65219 39.3165 -5.59531 75.7749 16.8713 98.2415C36.7784 118.149 67.6628 120.367 90.1294 104.953L132.446 147.27C136.086 150.91 141.945 150.91 145.585 147.27L147.291 145.564C150.931 141.923 150.931 136.065 147.291 132.425L104.974 90.1081C120.388 67.6983 118.227 36.8139 98.3197 16.8499ZM84.4417 84.4203C69.5966 99.2653 45.5375 99.2653 30.7494 84.4203C15.9044 69.6322 15.9044 45.573 30.7494 30.728C45.5944 15.883 69.6535 15.883 84.4417 30.728C99.2867 45.573 99.2867 69.6322 84.4417 84.4203Z" fill="white"/>
</svg>
