<svg viewBox="0 0 18 30" fill="none" xmlns="http://www.w3.org/2000/svg">
<path d="M5.65737 20.3448C5.65737 18.2759 5.97166 16.8966 6.28596 15.5172C6.60026 14.1379 7.54316 13.7931 8.48605 12.7586C9.42894 11.7241 10.0575 11.0345 10.6861 10.3448C11.3147 9.65517 11.3147 8.96552 11.3147 7.93103C11.3147 5.86207 10.3718 4.82759 8.80035 4.82759C8.17175 4.82759 7.54316 5.17241 6.91456 5.86207C6.28596 6.55172 6.28596 7.58621 6.28596 8.62069H0C0 5.86207 0.942894 3.7931 2.20009 2.41379C3.45728 1.03448 5.97166 0 8.80035 0C11.629 0 13.5148 0.689655 15.0863 2.06897C16.6578 3.44828 17.2864 5.51724 17.2864 7.93103C17.2864 8.96552 16.9721 10 16.6578 11.0345C16.3435 12.069 15.7149 12.7586 14.772 13.7931L12.5719 15.8621C11.9433 16.5517 11.629 17.2414 11.3147 17.931C11.0004 18.6207 11.0004 19.6552 11.0004 20.3448H5.65737ZM5.02877 26.5517C5.02877 25.5172 5.34307 24.8276 5.97166 24.1379C6.60026 23.4483 7.54316 23.1034 8.48605 23.1034C9.42894 23.1034 10.3718 23.4483 11.0004 24.1379C11.629 24.8276 11.9433 25.5172 11.9433 26.5517C11.9433 27.5862 11.629 28.6207 11.0004 28.9655C10.3718 29.3103 9.42894 30 8.48605 30C7.54316 30 6.60026 29.6552 5.97166 28.9655C5.34307 28.2759 5.02877 27.5862 5.02877 26.5517Z" fill="#E6E7E8"/>
</svg>
