<svg width="177" height="130" viewBox="0 0 177 130" fill="none" xmlns="http://www.w3.org/2000/svg">
<path d="M68.2978 129.672C66.4097 129.645 64.7679 128.932 63.4819 127.672C58.748 122.986 54.0963 118.245 49.4171 113.504C44.5191 108.544 39.5937 103.612 34.6684 98.6791C30.646 94.6509 26.6509 90.5952 22.6285 86.5396C18.4693 82.3469 14.2554 78.1542 10.1235 73.9342C7.33247 71.1117 4.48669 68.344 1.85982 65.3844C-0.794412 62.3701 -0.575506 58.7255 2.24291 55.7934C4.45933 53.4915 6.73048 51.2445 9.00163 48.9974C11.4096 46.5859 13.927 44.2293 16.2255 41.7356C19.0713 38.6391 23.8599 38.5294 27.0066 41.763C34.1211 49.107 41.345 56.3414 48.5142 63.6032C54.6162 69.7689 60.7182 75.9072 66.8202 82.0181C68.3799 83.58 68.462 83.4978 70.0217 81.9359C74.1535 77.7432 78.3127 73.6053 82.4719 69.4401C86.6312 65.2748 90.7904 61.137 94.9496 56.9717C99.1909 52.7242 103.46 48.4767 107.701 44.2293C111.778 40.1188 115.855 36.0084 119.932 31.9253C123.982 27.8697 128.059 23.814 132.109 19.7584C136.323 15.5383 140.537 11.2908 144.751 7.07076C146.666 5.17994 148.445 3.12472 150.579 1.50794C153.452 -0.711708 156.982 -0.437678 159.554 2.11081C164.562 7.01595 169.487 12.0033 174.385 17.0455C176.848 19.5665 176.902 23.5126 174.522 26.1159C171.649 29.2398 168.611 32.1993 165.629 35.2137C160.019 40.8313 154.41 46.4215 148.8 52.0391C143.875 56.9717 138.95 61.9316 134.024 66.8642C128.415 72.4818 122.805 78.0994 117.196 83.6897C111.504 89.3895 105.785 95.0893 100.094 100.817C94.5118 106.407 88.9844 111.997 83.4023 117.56C79.8177 121.122 76.2605 124.739 72.5391 128.137C71.4719 129.096 69.8028 129.398 68.4072 130.028C68.3799 129.891 68.3251 129.782 68.2978 129.672Z" fill="white"/>
</svg>
