<?xml version="1.0" encoding="UTF-8"?>
<svg viewBox="0 0 32 32" version="1.1" xmlns="http://www.w3.org/2000/svg" xmlns:xlink="http://www.w3.org/1999/xlink">
    <!-- Generator: Sketch 49.1 (51147) - http://www.bohemiancoding.com/sketch -->
    <title>success-large</title>
    <desc>Created with Sketch.</desc>
    <defs></defs>
    <g id="success-large" stroke="none" stroke-width="1" fill="none" fill-rule="evenodd">
        <path d="M16.0124945,6 L16,6 C10.4774161,6 6,10.4767914 6,16 C6,21.5232086 10.4767914,26 16,26 C21.5225839,26 26,21.5232086 26,16 L26,15.9956269 C25.9968764,10.479915 21.5282064,6.00812145 16.013744,6 L16.0124945,6 Z M16.0124945,24.3419754 L16,24.3419754 C11.3926407,24.3419754 7.65802461,20.6067346 7.65802461,16 C7.65802461,11.3932654 11.3932654,7.65802461 16,7.65802461 C20.6054851,7.65802461 24.3401012,11.3907665 24.3419754,15.9956269 C24.3413507,20.5992378 20.6142313,24.3319798 16.0131193,24.3419754 L16.0124945,24.3419754 Z M19.4359968,12.8551259 L14.921097,17.3781471 L12.5889923,15.0372962 C12.4353096,14.8586244 12.2091585,14.7461735 11.9561442,14.7461735 C11.4963453,14.7461735 11.1233835,15.1191354 11.1233835,15.5789342 C11.1233835,15.8313238 11.2358343,16.0580996 11.4132567,16.2105329 L14.338227,19.1348785 C14.4812894,19.2841882 14.6824514,19.3766477 14.9054789,19.3766477 L14.9223465,19.3766477 L14.9317174,19.3766477 C15.1559943,19.3766477 15.3590304,19.2841882 15.5045917,19.1348785 L20.6023615,14.0283626 C20.7522959,13.8778035 20.8447554,13.6703942 20.8447554,13.4411195 C20.8447554,13.2118448 20.7522959,13.0044356 20.6023615,12.8538764 C20.4536765,12.7033173 20.2475167,12.610233 20.0194915,12.610233 C19.7914662,12.610233 19.5853064,12.7033173 19.4366215,12.8538764 L19.4359968,12.8551259 Z" id="Mask" fill="#1F2229" fill-rule="nonzero"></path>
    </g>
</svg>