<svg viewBox="0 0 59 118" fill="none" xmlns="http://www.w3.org/2000/svg">
<path d="M0 113.729L3.90481 99.5792C5.5783 101.048 7.43774 102.382 10.0409 102.115C13.9458 101.581 16.549 98.3778 19.617 81.2919L29.0072 28.2986C32.819 6.67421 39.1411 0 48.2523 0C52.9009 0 56.3408 2.80317 58.8511 5.8733L54.1095 18.6878C52.9009 17.2195 51.2274 15.6176 48.7172 15.6176C44.6264 15.6176 42.3951 19.8891 41.0005 27.8982L29.9369 87.2986C26.4969 105.986 21.1975 118.267 9.39014 118C5.39236 118 1.76646 115.597 0 113.729ZM18.0365 39.9118L24.7305 38.9774H49.6469L47.8804 53.9276H16.363L18.0365 39.9118Z" fill="#AAFAE2"/>
</svg>
