<?xml version="1.0" encoding="UTF-8"?>
<svg viewBox="0 0 32 32" version="1.1" xmlns="http://www.w3.org/2000/svg" xmlns:xlink="http://www.w3.org/1999/xlink">
    <!-- Generator: Sketch 49.1 (51147) - http://www.bohemiancoding.com/sketch -->
    <title>alert-large</title>
    <desc>Created with Sketch.</desc>
    <defs></defs>
    <g id="alert-large" stroke="none" stroke-width="1" fill="none" fill-rule="evenodd">
        <path d="M16.0043731,18.0447304 C16.4641719,18.0447304 16.8371338,17.6717686 16.8371338,17.2119698 L16.8371338,10.8066471 C16.8371338,10.3468483 16.4641719,9.97388642 16.0043731,9.97388642 C15.5445742,9.97388642 15.1716124,10.3468483 15.1716124,10.8066471 L15.1716124,17.2119698 C15.1716124,17.6717686 15.5445742,18.0447304 16.0043731,18.0447304 Z M16.0043731,6 L16,6 C10.4774161,6 6,10.4767914 6,16 C6,21.5232086 10.4767914,26 16,26 C21.5213344,26 25.9975011,21.5250828 26,16.0043731 C25.9962516,10.4836634 21.524458,6.00874617 16.0049978,6 L16.0043731,6 Z M16.0043731,24.3419754 L16,24.3419754 C11.3926407,24.3419754 7.65802461,20.6067346 7.65802461,16 C7.65802461,11.3932654 11.3932654,7.65802461 16,7.65802461 C20.6073593,7.65802461 24.3419754,11.3932654 24.3419754,16 L24.3419754,16.0043731 C24.3369776,20.6067346 20.6067346,24.3369776 16.0043731,24.3419754 Z M16.0043731,19.2691947 C15.4708565,19.2691947 15.0379209,19.7015056 15.0379209,20.2356469 C15.0379209,20.7697882 15.4702318,21.2020991 16.0043731,21.2020991 C16.5378897,21.2020991 16.9708253,20.7697882 16.9708253,20.2356469 C16.9708253,19.7015056 16.5378897,19.2698195 16.0043731,19.2691947 Z" id="Mask" fill="#e03363" fill-rule="nonzero"></path>
    </g>
</svg>