<svg
  viewBox="0 0 101 89"
  fill="none"
  xmlns="http://www.w3.org/2000/svg"
>
  <path
    d="M74.0162 7.98972C79.7956 12.6802 78.9586 29.1367 82.1472 29.5342C85.3358 29.9714 96.3765 25.5989 101 21.2662C94.4633 30.6869 81.7087 38.1201 77.2048 35.4569C72.661 32.7937 77.2048 14.7472 74.0162 7.98972Z"
    fill="#AAFAE2"
  />
  <path
    d="M72.5016 20.1532C67.4795 11.8852 60.2652 5.60473 57.9136 4.84949C55.562 4.09424 43.9234 10.6132 39.6586 17.1322C44.6409 5.48548 54.6054 -1.94775 60.0261 0.476998C65.4866 2.90174 71.0667 6.00223 71.824 6.63823C72.103 10.812 73.3386 12.561 72.5016 20.1532Z"
    fill="#AAFAE2"
  />
  <path
    d="M44.7206 25.2809C46.1953 31.4819 65.088 39.7896 73.2987 46.6664C81.5095 53.5431 64.0517 68.2903 43.1263 81.1295C58.4716 66.8593 74.893 56.4448 55.2829 48.6539C35.7127 40.8629 28.4586 33.8669 44.7206 25.2809Z"
    fill="#AAFAE2"
  />
  <path
    d="M33.7597 35.4569C32.2849 41.3796 26.2265 51.9531 18.5339 56.9616C10.8414 61.9701 6.89542 70.0393 0 86.2573C12.9538 66.3426 25.1504 65.9451 30.0529 59.4658C34.9554 52.9866 43.2857 44.2019 43.2857 44.2019C39.2999 42.6516 35.5931 39.9089 33.7597 35.4569Z"
    fill="#AAFAE2"
  />
  <path
    d="M86.3497 16.4045C89.535 15.9779 91.7704 13.0569 91.3427 9.88024C90.9149 6.70359 87.9859 4.47425 84.8006 4.90085C81.6154 5.32746 79.38 8.24848 79.8077 11.4251C80.2355 14.6018 83.1645 16.8311 86.3497 16.4045Z"
    fill="#AAFAE2"
  />
  <path
    d="M65.088 81.7655C65.088 85.7803 61.8197 89 57.8339 89C53.8481 89 50.5797 85.7405 50.5797 81.7655C50.5797 77.7905 53.8481 74.531 57.8339 74.531C61.8197 74.531 65.088 77.7508 65.088 81.7655Z"
    fill="#AAFAE2"
  />
</svg>
