<?xml version="1.0" encoding="UTF-8"?>
<svg viewBox="0 0 32 32" version="1.1" xmlns="http://www.w3.org/2000/svg" xmlns:xlink="http://www.w3.org/1999/xlink">
    <g id="rouble" stroke="none" stroke-width="1" fill="none" fill-rule="evenodd">
        <path d="M16.34576,17.8654641 C21.111166,17.8654641 25,14.7598647 25,10.9327321 C25,7.1055994 21.1119296,4 16.34576,4 L10.1990658,4 C9.61799317,4 9.14763744,4.46373544 9.14763744,5.03494927 C9.14763744,5.6061631 9.61875674,6.06989853 10.1990658,6.06989853 L13.161696,6.06989853 L13.161696,15.794814 L9.05142831,15.794814 C8.47035573,15.794814 8,16.2585494 8,16.8297632 C8,17.4009771 8.4711193,17.8647125 9.05142831,17.8647125 L13.161696,17.8647125 L13.161696,20.3013905 L9.05142831,20.3013905 C8.47035573,20.3013905 8,20.7651259 8,21.3363397 C8,21.9075536 8.4711193,22.371289 9.05142831,22.371289 L13.161696,22.371289 L13.161696,27.0349493 C13.2059828,27.5768508 13.6633579,28 14.22076,28 C14.7781621,28 15.2355372,27.5768508 15.2798239,27.0387073 L15.2798239,22.371289 L21.4937118,22.371289 C22.0747844,22.371289 22.5451401,21.9075536 22.5451401,21.3363397 C22.5451401,20.7651259 22.0740208,20.3013905 21.4937118,20.3013905 L15.2798239,20.3013905 L15.2798239,17.8647125 L16.3419421,17.8647125 L16.34576,17.8654641 Z M15.2836418,6.06989853 L16.34576,6.06989853 C19.9429123,6.06989853 22.875,8.25554303 22.875,10.9327321 C22.875,13.6099211 19.9429123,15.7955656 16.34576,15.7955656 L15.2836418,15.7955656 L15.2836418,6.07065013 L15.2836418,6.06989853 Z" id="Mask" fill="#1F2229" fill-rule="nonzero"></path>
    </g>
</svg>